<svg xmlns="http://www.w3.org/2000/svg" width="1200" height="630" viewBox="0 0 1200 630">
  <defs>
    <linearGradient id="bg" x1="0" y1="0" x2="1" y2="1">
      <stop offset="0" stop-color="#03070b"/>
      <stop offset="0.48" stop-color="#0b1526"/>
      <stop offset="1" stop-color="#180514"/>
    </linearGradient>
    <radialGradient id="cyan" cx="0.18" cy="0.22" r="0.48">
      <stop offset="0" stop-color="#24e6ff" stop-opacity="0.82"/>
      <stop offset="1" stop-color="#24e6ff" stop-opacity="0"/>
    </radialGradient>
    <radialGradient id="pink" cx="0.78" cy="0.34" r="0.44">
      <stop offset="0" stop-color="#ff3ea5" stop-opacity="0.72"/>
      <stop offset="1" stop-color="#ff3ea5" stop-opacity="0"/>
    </radialGradient>
    <radialGradient id="amber" cx="0.62" cy="0.9" r="0.5">
      <stop offset="0" stop-color="#ffb84d" stop-opacity="0.62"/>
      <stop offset="1" stop-color="#ffb84d" stop-opacity="0"/>
    </radialGradient>
    <filter id="grain">
      <feTurbulence type="fractalNoise" baseFrequency="0.92" numOctaves="3" seed="11"/>
      <feColorMatrix type="saturate" values="0"/>
      <feComponentTransfer><feFuncA type="table" tableValues="0 0.14"/></feComponentTransfer>
    </filter>
  </defs>
  <rect width="1200" height="630" fill="url(#bg)"/>
  <rect width="1200" height="630" fill="url(#cyan)"/>
  <rect width="1200" height="630" fill="url(#pink)"/>
  <rect width="1200" height="630" fill="url(#amber)"/>
  <g opacity="0.28" stroke="#dcecff" stroke-width="1">
    <path d="M0 110H1200M0 210H1200M0 310H1200M0 410H1200M0 510H1200"/>
    <path d="M140 0V630M300 0V630M460 0V630M620 0V630M780 0V630M940 0V630M1100 0V630"/>
  </g>
  <g fill="none" stroke-linecap="square">
    <path d="M74 525 L214 328 L358 525" stroke="#24e6ff" stroke-width="8"/>
    <path d="M425 530 L600 175 L792 530" stroke="#ff3ea5" stroke-width="7"/>
    <path d="M690 528 L850 295 L1042 528" stroke="#ffb84d" stroke-width="8"/>
    <path d="M40 548 H1160" stroke="#24e6ff" stroke-width="3" opacity="0.38"/>
  </g>
  <rect x="70" y="70" width="1060" height="490" fill="none" stroke="#5d6573" stroke-width="2" opacity="0.85"/>
  <text x="92" y="132" fill="#24e6ff" font-family="Menlo, Consolas, monospace" font-size="26" letter-spacing="3">ASCII VJ REMIX</text>
  <text x="92" y="245" fill="#f2f6ff" font-family="Menlo, Consolas, monospace" font-size="64" font-weight="700">Simple visuals</text>
  <text x="92" y="324" fill="#f2f6ff" font-family="Menlo, Consolas, monospace" font-size="64" font-weight="700">for DJs.</text>
  <text x="92" y="420" fill="#ff3ea5" font-family="Menlo, Consolas, monospace" font-size="43" font-weight="700">Deep ASCII control for VJs.</text>
  <text x="92" y="505" fill="#c6ccd8" font-family="Inter, Arial, sans-serif" font-size="27">Live video, camera, and audio-reactive visuals.</text>
  <rect width="1200" height="630" filter="url(#grain)"/>
</svg>
