<svg xmlns="http://www.w3.org/2000/svg" width="1280" height="720" viewBox="0 0 1280 720">
  <defs>
    <linearGradient id="sky" x1="0" x2="1" y1="0" y2="1">
      <stop offset="0" stop-color="#04111f"/>
      <stop offset="0.45" stop-color="#102a50"/>
      <stop offset="1" stop-color="#120716"/>
    </linearGradient>
    <radialGradient id="glowA" cx="0.18" cy="0.25" r="0.38">
      <stop offset="0" stop-color="#24e6ff" stop-opacity="0.9"/>
      <stop offset="1" stop-color="#24e6ff" stop-opacity="0"/>
    </radialGradient>
    <radialGradient id="glowB" cx="0.74" cy="0.38" r="0.34">
      <stop offset="0" stop-color="#ff3ea5" stop-opacity="0.8"/>
      <stop offset="1" stop-color="#ff3ea5" stop-opacity="0"/>
    </radialGradient>
    <radialGradient id="glowC" cx="0.62" cy="0.78" r="0.42">
      <stop offset="0" stop-color="#ffb84d" stop-opacity="0.75"/>
      <stop offset="1" stop-color="#ffb84d" stop-opacity="0"/>
    </radialGradient>
    <filter id="grain">
      <feTurbulence type="fractalNoise" baseFrequency="0.9" numOctaves="3" seed="7"/>
      <feColorMatrix type="saturate" values="0"/>
      <feComponentTransfer>
        <feFuncA type="table" tableValues="0 0.16"/>
      </feComponentTransfer>
    </filter>
  </defs>
  <rect width="1280" height="720" fill="url(#sky)"/>
  <rect width="1280" height="720" fill="url(#glowA)"/>
  <rect width="1280" height="720" fill="url(#glowB)"/>
  <rect width="1280" height="720" fill="url(#glowC)"/>
  <g opacity="0.86">
    <path d="M0 570 C140 520 224 606 348 552 C475 497 548 402 696 442 C833 478 911 586 1034 531 C1128 490 1193 430 1280 468 L1280 720 L0 720 Z" fill="#071017"/>
    <path d="M0 625 C160 574 249 643 394 606 C522 573 613 515 764 548 C916 582 1011 668 1280 601 L1280 720 L0 720 Z" fill="#0c1822"/>
  </g>
  <g fill="none" stroke-linecap="round">
    <path d="M108 645 L266 430 L430 645" stroke="#21d6e8" stroke-width="5" opacity="0.95"/>
    <path d="M522 650 L692 288 L884 650" stroke="#ff3ea5" stroke-width="4" opacity="0.9"/>
    <path d="M780 646 L928 398 L1090 646" stroke="#ffb84d" stroke-width="5" opacity="0.88"/>
    <path d="M42 612 H1218" stroke="#21d6e8" stroke-width="2" opacity="0.25"/>
  </g>
  <g opacity="0.75">
    <rect x="182" y="165" width="22" height="420" fill="#21d6e8"/>
    <rect x="226" y="265" width="12" height="310" fill="#ffb84d"/>
    <rect x="996" y="118" width="18" height="450" fill="#ff3ea5"/>
    <rect x="1042" y="248" width="12" height="285" fill="#21d6e8"/>
    <rect x="612" y="80" width="15" height="520" fill="#dcecff"/>
  </g>
  <g fill="#ffffff">
    <circle cx="170" cy="205" r="12" opacity="0.94"/>
    <circle cx="610" cy="118" r="10" opacity="0.78"/>
    <circle cx="1010" cy="154" r="11" opacity="0.84"/>
    <circle cx="925" cy="402" r="8" opacity="0.7"/>
    <circle cx="694" cy="292" r="9" opacity="0.76"/>
  </g>
  <rect width="1280" height="720" filter="url(#grain)"/>
</svg>
